<svg width="24" height="24" viewBox="0 0 24 24" fill="none" xmlns="http://www.w3.org/2000/svg">
<path fill-rule="evenodd" clip-rule="evenodd" d="M12 4.00098C10.3971 4.00098 9.09766 5.30042 9.09766 6.90336C9.09766 8.5063 10.3971 9.80574 12 9.80574C13.603 9.80574 14.9024 8.5063 14.9024 6.90336C14.9024 5.30042 13.603 4.00098 12 4.00098ZM7.09766 6.90336C7.09766 4.19585 9.29253 2.00098 12 2.00098C14.7075 2.00098 16.9024 4.19585 16.9024 6.90336C16.9024 9.61087 14.7075 11.8057 12 11.8057C9.29253 11.8057 7.09766 9.61087 7.09766 6.90336Z" fill="#40BFFF"/>
<path fill-rule="evenodd" clip-rule="evenodd" d="M9.51784 15.3906C6.47035 15.3906 4 17.861 4 20.9085V20.9996C4 21.5519 3.55228 21.9996 3 21.9996C2.44772 21.9996 2 21.5519 2 20.9996V20.9085C2 16.7564 5.36578 13.3906 9.51784 13.3906H14.4822C18.6342 13.3906 22 16.7564 22 20.9085V20.9996C22 21.5519 21.5523 21.9996 21 21.9996C20.4477 21.9996 20 21.5519 20 20.9996V20.9085C20 17.861 17.5296 15.3906 14.4822 15.3906H9.51784Z" fill="#40BFFF"/>
</svg>
