<svg width="96" height="16" viewBox="0 0 96 16" fill="none" xmlns="http://www.w3.org/2000/svg">
<path d="M8 0L10.6613 4.33699L15.6085 5.52786L12.3061 9.39915L12.7023 14.4721L8 12.5277L3.29772 14.4721L3.69387 9.39915L0.391548 5.52786L5.33867 4.33699L8 0Z" fill="#FFC833"/>
<path d="M28 0L30.6613 4.33699L35.6085 5.52786L32.3061 9.39915L32.7023 14.4721L28 12.5277L23.2977 14.4721L23.6939 9.39915L20.3915 5.52786L25.3387 4.33699L28 0Z" fill="#FFC833"/>
<path d="M48 0L50.6613 4.33699L55.6085 5.52786L52.3061 9.39915L52.7023 14.4721L48 12.5277L43.2977 14.4721L43.6939 9.39915L40.3915 5.52786L45.3387 4.33699L48 0Z" fill="#FFC833"/>
<path d="M68 0L70.6613 4.33699L75.6085 5.52786L72.3061 9.39915L72.7023 14.4721L68 12.5277L63.2977 14.4721L63.6939 9.39915L60.3915 5.52786L65.3387 4.33699L68 0Z" fill="#FFC833"/>
<path d="M88 0L90.6613 4.33699L95.6085 5.52786L92.3061 9.39915L92.7023 14.4721L88 12.5277L83.2977 14.4721L83.6939 9.39915L80.3915 5.52786L85.3387 4.33699L88 0Z" fill="#EBF0FF"/>
</svg>
